<svg id="Capa_1" enable-background="new 0 0 512 512" height="512" viewBox="0 0 512 512" width="512" xmlns="http://www.w3.org/2000/svg"><g><g><g><path d="m336 480h-160v-336c0-35.346 28.654-64 64-64h32c35.346 0 64 28.654 64 64z" fill="#c8f5f0"/></g></g><g><g><path d="m271.931 56-15.96-31.75-15.959 31.75v31.875h31.988z" fill="#a7c5c9"/></g></g><g><g><path d="m272 87.875h-31.988l-23.917 32.125h80.32z" fill="#a7c5c9"/></g></g><g><g><path d="m216 120h80v352h-80z" fill="#ffd3ae"/></g></g><g><g><path d="m208 152h96v96h-96z" fill="#ffd3ae"/></g></g><g><g><circle cx="255.928" cy="200.322" fill="#fff" r="24.088"/></g></g><g><g><path d="m216 248h80v24h-80z" fill="#ffb895"/></g></g><g><g><path d="m216 360h80v24h-80z" fill="#ffb895"/></g></g><g><g><path d="m216 416h80v24h-80z" fill="#ffb895"/></g></g><g><g><path d="m216 304h80v24h-80z" fill="#ffb895"/></g></g><g><g><g><path d="m192 488c0 13.255 10.745 24 24 24h80c13.255 0 24-10.745 24-24z" fill="#d1c9d1"/></g></g></g><g><g><path d="m320 496h-128c-8.837 0-16-7.163-16-16l8.003-8h143.999l7.998 8c0 8.837-7.163 16-16 16z" fill="#a494a4"/></g></g><g><path d="m279.931 55.982c-.003-1.242-.294-2.466-.852-3.575l-15.073-29.986v-14.421c0-4.418-3.582-8-8-8s-8 3.582-8 8v14.283l-15.142 30.124c-.56 1.115-.852 2.345-.852 3.593v31.875c0 4.418 3.582 8 8 8s8-3.582 8-8v-29.978l7.959-15.835 7.963 15.843.066 29.988c.01 4.412 3.589 7.982 8 7.982h.018c4.418-.01 7.992-3.599 7.982-8.018z" fill="#7c657c"/><g><g><path d="m255.928 232.409c-17.693 0-32.087-14.395-32.087-32.088s14.395-32.087 32.087-32.087 32.087 14.394 32.087 32.087-14.394 32.088-32.087 32.088zm0-48.175c-8.871 0-16.087 7.217-16.087 16.087 0 8.871 7.217 16.088 16.087 16.088s16.087-7.217 16.087-16.088c.001-8.87-7.216-16.087-16.087-16.087z" fill="#7c657c"/></g></g><path d="m320 464.293h-16.072v-208.168h.167c4.418 0 8-3.582 8-8v-95.75c0-4.31-3.411-7.814-7.68-7.984v-24.391c0-1.819-.615-3.492-1.638-4.836l.007-.005-24.415-32.125c-1.513-1.99-3.869-3.159-6.369-3.159h-31.988c-2.528 0-4.907 1.195-6.417 3.223l-23.917 32.125.004.009c-.993 1.333-1.587 2.979-1.587 4.769v24.375h-.167c-4.418 0-8 3.582-8 8v95.75c0 4.418 3.582 8 8 8h.271v208.168h-16.071c-8.836 0-16 7.164-16 16h159.872c0-8.837-7.163-16.001-16-16.001zm-32.072-152.168v40.357h-63.728v-40.357zm-63.728-16v-40h63.729v40zm63.728 72.357v39.58h-63.728v-39.58zm-43.899-272.607h24.002l12.256 16.125h-48.262zm-19.934 32.125h64.32v16.375h-64.32zm-8.167 32.375h80.167v79.75h-.167-79.728-.271v-79.75zm8.272 263.688h63.729v40.23h-63.729z" fill="#503250"/></g></g></svg>