<svg id="Capa_1" enable-background="new 0 0 512 512" height="512" viewBox="0 0 512 512" width="512" xmlns="http://www.w3.org/2000/svg"><g><g><g><path d="m408 480h-304v-128c0-53.019 42.981-96 96-96h112c53.019 0 96 42.981 96 96z" fill="#c8f5f0"/></g></g><g><g><path d="m376 472c-80-160-120-336-120-368 0 32-40 208-120 368h48l-4-4c0-41.974 34.026-76 76-76s76 34.026 76 76l-4 4zm-156.592-111.999c10.381-27.547 19.629-54.49 27.714-79.995l17.764.027c8.083 25.497 17.33 52.432 27.707 79.97z" fill="#ffd3ae"/></g></g><g><g><path d="m298.369 280h-84.737c-2.548 7.86-5.232 15.883-8.011 24h33.661c2.71-8.105 5.35-16.137 7.84-23.994l17.764.027c2.488 7.848 5.125 15.871 7.832 23.967h33.661c-2.778-8.117-5.462-16.14-8.01-24z" fill="#ffb895"/></g></g><g><g><path d="m336.304 384c-3.279-8.043-6.445-16.043-9.523-24h-141.562c-3.078 7.957-6.244 15.957-9.523 24z" fill="#ffb895"/></g></g><g><g><path d="m272 104h-32v-32l16-16 16 16z" fill="#ffd3ae"/></g></g><g><g><path d="m136 488c0 13.255 10.745 24 24 24h192c13.255 0 24-10.745 24-24z" fill="#aad264"/></g></g><g><g><path d="m392 496h-272c-8.837 0-16-7.163-16-16l8.003-8h287.999l7.998 8c0 8.837-7.163 16-16 16z" fill="#6ea573"/></g></g><path d="m376.006 480.002c.011 0 .023-.002.034-.002h31.96c0-8.836-7.163-16-16-16h-11.035c-76.756-155.245-116.965-327.895-116.965-360 0-4.418-3.582-8-8-8s-8 3.582-8 8c0 32.105-40.209 204.755-116.965 360h-11.035c-8.836 0-16 7.164-16 16h31.959c.011 0 .023.002.034.002.01 0 .019-.002.028-.002h239.956c.011 0 .02.002.029.002zm-120.006-324.302c5.089 23.695 12.563 53.365 22.325 86.557 2.707 9.205 5.733 19.162 9.079 29.743h-62.809c3.346-10.581 6.372-20.538 9.079-29.743 9.764-33.193 17.237-62.862 22.326-86.557zm-36.562 132.3h16.717c-7.573 23.328-15.706 46.552-24.234 69.18-1.558 4.135.531 8.749 4.665 10.307.929.35 1.882.516 2.82.516 3.234 0 6.28-1.976 7.487-5.181 9.216-24.456 17.969-49.599 26.066-74.822h6.08c8.095 25.216 16.848 50.36 26.067 74.824 1.208 3.206 4.253 5.181 7.488 5.181.937 0 1.891-.166 2.819-.516 4.135-1.558 6.223-6.173 4.666-10.307-8.53-22.635-16.664-45.86-24.235-69.182h16.717c16.588 50.562 39.879 112.838 70.585 176h-23.248c-2.096-44.467-38.922-80-83.898-80-44.977 0-81.803 35.533-83.898 80h-23.248c30.706-63.162 53.996-125.438 70.584-176zm104.435 176h-135.746c2.079-35.639 31.721-64 67.873-64 36.151 0 65.794 28.361 67.873 64z" fill="#503250"/><g><g><path d="m336 368h-160c-4.418 0-8-3.582-8-8s3.582-8 8-8h160c4.418 0 8 3.582 8 8s-3.582 8-8 8z" fill="#7c657c"/></g></g><path d="m277.657 66.343-13.657-13.656v-44.687c0-4.418-3.582-8-8-8s-8 3.582-8 8v44.687l-13.657 13.657c-1.5 1.5-2.343 3.535-2.343 5.657v32c0 4.418 3.582 8 8 8h32c4.418 0 8-3.582 8-8v-32.001c0-2.122-.843-4.156-2.343-5.657zm-13.657 29.657h-16v-20.686l8-8 8 8z" fill="#7c657c"/></g></svg>