<svg id="Capa_1" enable-background="new 0 0 512 512" height="512" viewBox="0 0 512 512" width="512" xmlns="http://www.w3.org/2000/svg"><g><g><g><path d="m512 468h-512v-232c0-44.183 35.817-80 80-80h352c44.183 0 80 35.817 80 80z" fill="#c8f5f0"/></g></g><g><g><path d="m168 243.384c0-36.923-48-44.308-48-55.384 0 11.077-48 18.461-48 55.384 0 16.616 8 24.616 8 24.616v32h88z" fill="#ffeacd"/></g></g><g><g><path d="m80 268h88v32h-88z" fill="#ffd3ae"/></g></g><g><g><path d="m344 243.384c0-36.923 48-44.308 48-55.384 0 11.077 48 18.461 48 55.384 0 16.616-8 24.616-8 24.616v32h-88z" fill="#ffeacd"/></g></g><g><g><path d="m344 268h88v32h-88z" fill="#ffd3ae" transform="matrix(-1 0 0 -1 776 568)"/></g></g><g><g><path d="m256 52c0 24-104 40-104 120 0 24 16 48 16 48v32h176v-32s16-24 16-48c0-80-104-96-104-120z" fill="#ffeacd"/></g></g><g><g><path d="m168 220h176v32h-176z" fill="#ffd3ae"/></g></g><g><g><path d="m160 252h192v208h-192z" fill="#ffeacd"/></g></g><g><g><path d="m56 300h400v160h-400z" fill="#ffeacd"/></g></g><g><g><path d="m56 436h400v24h-400z" fill="#ffd3ae"/></g></g><g><g><path d="m128 460v-24c0-16-20-24-20-24s-20 8-20 24v24" fill="#d1c9d1"/></g></g><g><g><path d="m108 332s-20 8-20 24v24h40v-24c0-16-20-24-20-24z" fill="#d1c9d1"/></g></g><g><g><path d="m384 460v-24c0-16 20-24 20-24s20 8 20 24v24" fill="#d1c9d1"/></g></g><g><g><path d="m404 332s20 8 20 24v24h-40v-24c0-16 20-24 20-24z" fill="#d1c9d1"/></g></g><g><g><path d="m256 316s-64 24-64 64v80h128v-80c0-40-64-64-64-64z" fill="#ffd3ae"/></g></g><g><g><path d="m280 460v-56h-48v56" fill="#d1c9d1"/></g></g><g><g><path d="m280 468c-4.418 0-8-3.582-8-8v-48h-32v48c0 4.418-3.582 8-8 8s-8-3.582-8-8v-56c0-4.418 3.582-8 8-8h48c4.418 0 8 3.582 8 8v56c0 4.418-3.582 8-8 8z" fill="#7c657c"/></g></g><g><g><path d="m80 308c-4.418 0-8-3.582-8-8v-29.18c-3.085-4.293-8-13.343-8-27.436 0-28.484 23.933-42.249 38.232-50.474 3.565-2.051 8.341-4.797 9.897-6.349.678-3.731 3.944-6.561 7.871-6.561s7.193 2.83 7.871 6.562c1.556 1.552 6.332 4.299 9.897 6.349 14.299 8.224 38.232 21.99 38.232 50.474 0 4.418-3.582 8-8 8s-8-3.582-8-8c0-19.229-16.75-28.863-30.209-36.604-3.566-2.051-6.95-3.998-9.791-6.077-2.841 2.079-6.225 4.026-9.791 6.077-13.459 7.74-30.209 17.375-30.209 36.604 0 12.233 5.1 18.325 5.703 19.002 1.592 1.506 2.297 3.414 2.297 5.613v32c0 4.418-3.582 8-8 8zm48-120.006v.006c0-.002 0-.004 0-.006zm-16 .006h.01zm0-.006v.006c0-.002 0-.004 0-.006z" fill="#7c657c"/></g></g><g><g><path d="m160 276h-80c-4.418 0-8-3.582-8-8s3.582-8 8-8h80c4.418 0 8 3.582 8 8s-3.582 8-8 8z" fill="#7c657c"/></g></g><g><g><path d="m432 308c-4.418 0-8-3.582-8-8v-32c0-2.199.705-4.107 2.297-5.613.604-.677 5.703-6.769 5.703-19.002 0-19.229-16.75-28.863-30.209-36.604-3.566-2.051-6.95-3.998-9.791-6.077-2.841 2.079-6.225 4.026-9.791 6.077-13.459 7.74-30.209 17.375-30.209 36.604 0 4.418-3.582 8-8 8s-8-3.582-8-8c0-28.484 23.933-42.249 38.232-50.474 3.565-2.051 8.341-4.797 9.897-6.349.678-3.732 3.944-6.562 7.871-6.562s7.193 2.83 7.871 6.562c1.556 1.552 6.332 4.299 9.897 6.349 14.299 8.224 38.232 21.99 38.232 50.474 0 14.092-4.915 23.142-8 27.436v29.179c0 4.418-3.582 8-8 8zm-32-120.006v.006c0-.002 0-.004 0-.006zm-16 0v.006c0-.002 0-.004 0-.006z" fill="#7c657c"/></g></g><g><g><path d="m432 276h-80c-4.418 0-8-3.582-8-8s3.582-8 8-8h80c4.418 0 8 3.582 8 8s-3.582 8-8 8z" fill="#7c657c"/></g></g><g><g><path d="m320 468c-4.418 0-8-3.582-8-8v-168h-112v168c0 4.418-3.582 8-8 8s-8-3.582-8-8v-176c0-4.418 3.582-8 8-8h128c4.418 0 8 3.582 8 8v176c0 4.418-3.582 8-8 8z" fill="#7c657c"/></g></g><g><g><path d="m344 228h-176c-4.418 0-8-3.582-8-8s3.582-8 8-8h176c4.418 0 8 3.582 8 8s-3.582 8-8 8z" fill="#7c657c"/></g></g><g><g><path d="m32 476c0 13.255 10.745 24 24 24h400c13.255 0 24-10.745 24-24z" fill="#aad264"/></g></g><g><g><path d="m496 484h-480c-8.837 0-16-7.163-16-16l8.003-8h495.999l7.998 8c0 8.837-7.163 16-16 16z" fill="#6ea573"/></g></g><g fill="#503250"><path d="m496 452h-32v-152c0-4.418-3.582-8-8-8h-96v-40c0-4.418-3.582-8-8-8v-21.693c4.098-6.739 16-28.213 16-50.307 0-56.316-47.033-83.368-78.156-101.269-8.267-4.755-15.406-8.861-20.334-12.672-5.447-4.212-5.51-6.041-5.51-6.059 0-4.418-3.582-8-8-8s-8 3.582-8 8c0 .018-.063 1.847-5.51 6.059-4.928 3.811-12.068 7.917-20.334 12.672-31.123 17.901-78.156 44.953-78.156 101.269 0 22.094 11.902 43.568 16 50.307v21.693c-4.418 0-8 3.582-8 8v40h-96c-4.418 0-8 3.582-8 8v152h-32c-8.836 0-16 7.164-16 16h512c0-8.836-7.163-16-16-16zm-48-144v144h-16v-16c0-21.173-24.007-31.019-25.029-31.428-1.907-.763-4.035-.763-5.942 0-1.022.409-25.029 10.255-25.029 31.428v16h-16v-144zm-32 144h-24v-16c0-7.284 7.631-12.615 11.998-15.069 4.365 2.457 12.002 7.798 12.002 15.069zm-241.344-236.437c-.146-.22-14.656-22.232-14.656-43.563 0-47.061 40.536-70.376 70.133-87.4 10.715-6.163 19.809-11.393 25.867-17.001 6.058 5.608 15.152 10.838 25.867 17.001 29.597 17.024 70.133 40.339 70.133 87.4 0 21.211-14.515 43.35-14.656 43.563-.877 1.313-1.344 2.858-1.344 4.437v24h-160v-24c0-1.579-.467-3.124-1.344-4.437zm-110.656 92.437h88v144h-16v-16c0-21.173-24.007-31.019-25.029-31.428-1.907-.763-4.035-.763-5.942 0-1.022.409-25.029 10.255-25.029 31.428v16h-16zm56 144h-24v-16c0-7.284 7.631-12.615 11.998-15.069 4.365 2.457 12.002 7.798 12.002 15.069zm192 0h-112v-72c0-26.694 38.084-47.988 56.006-55.399 17.93 7.388 55.994 28.634 55.994 55.399zm16 0v-72c0-45.026-66.366-70.431-69.191-71.491-1.812-.679-3.807-.679-5.618 0-2.825 1.06-69.191 26.465-69.191 71.491v72h-16v-192h176v192z"/><path d="m88 388h40c4.418 0 8-3.582 8-8v-24c0-21.173-24.007-31.019-25.029-31.428-1.907-.763-4.035-.763-5.942 0-1.022.409-25.029 10.255-25.029 31.428v24c0 4.418 3.582 8 8 8zm8-32c0-7.279 7.621-12.608 11.999-15.068 4.365 2.457 12.001 7.798 12.001 15.068v16h-24z"/><path d="m384 388h40c4.418 0 8-3.582 8-8v-24c0-21.173-24.007-31.019-25.029-31.428-1.907-.763-4.035-.763-5.942 0-1.022.409-25.029 10.255-25.029 31.428v24c0 4.418 3.582 8 8 8zm8-32c0-7.279 7.621-12.608 11.999-15.068 4.365 2.457 12.001 7.798 12.001 15.068v16h-24z"/></g><g><g><path d="m344 260c-4.418 0-8-3.582-8-8v-32c0-4.418 3.582-8 8-8s8 3.582 8 8v32c0 4.418-3.582 8-8 8z" fill="#503250"/></g></g><g><g><path d="m256 60c-4.418 0-8-3.582-8-8v-32c0-4.418 3.582-8 8-8s8 3.582 8 8v32c0 4.418-3.582 8-8 8z" fill="#503250"/></g></g><g><g><path d="m120 196c-4.418 0-8-3.582-8-8v-8c0-4.418 3.582-8 8-8s8 3.582 8 8v8c0 4.418-3.582 8-8 8z" fill="#7c657c"/></g></g><g><g><path d="m392 196c-4.418 0-8-3.582-8-8v-8c0-4.418 3.582-8 8-8s8 3.582 8 8v8c0 4.418-3.582 8-8 8z" fill="#7c657c"/></g></g></g></svg>