<svg id="Capa_1" enable-background="new 0 0 512 512" height="512" viewBox="0 0 512 512" width="512" xmlns="http://www.w3.org/2000/svg"><g><g><g><path d="m512 444h-512v-136c0-35.346 28.654-64 64-64h384c35.346 0 64 28.654 64 64z" fill="#c8f5f0"/></g></g><g><g><circle cx="256" cy="60" fill="#a7c5c9" r="16"/></g></g><g><g><path d="m332.1 108.199c-2.513-5.025-7.648-8.199-13.267-8.199-8.192 0-14.833 6.641-14.833 14.833v33.167l32-32z" fill="#a7c5c9"/></g></g><g><g><path d="m179.9 108.199c2.513-5.025 7.648-8.199 13.267-8.199 8.192 0 14.833 6.641 14.833 14.833v33.167l-32-32z" fill="#a7c5c9"/></g></g><g><g><path d="m232 172v-40c0-13.255 10.745-24 24-24 13.255 0 24 10.745 24 24v40" fill="#a7c5c9"/></g></g><path d="m343.155 112.422-3.9-7.8c-3.893-7.786-11.718-12.622-20.422-12.622-12.59 0-22.833 10.243-22.833 22.833v29.854l-8 8v-20.687c0-14.95-10.307-27.535-24.188-31.031v-18.281c9.409-3.25 16.188-12.189 16.188-22.688 0-13.233-10.766-24-24-24s-24 10.767-24 24c0 10.359 6.598 19.206 15.813 22.561v18.505c-13.691 3.627-23.813 16.119-23.813 30.934v20.687l-8-8v-29.854c0-12.59-10.243-22.833-22.833-22.833-8.704 0-16.529 4.836-20.422 12.622l-3.9 7.8c-1.54 3.08-.937 6.8 1.499 9.235l46.01 46.01h23.646v-35.667c0-8.822 7.178-16 16-16s16 7.178 16 16v35.667h23.647l46.01-46.01c2.435-2.435 3.038-6.155 1.498-9.235zm-143.155 16.265-14.266-14.266 1.321-2.643c1.165-2.33 3.507-3.777 6.111-3.777 3.768 0 6.833 3.065 6.833 6.833v13.853zm56-60.687c-4.411 0-8-3.589-8-8s3.589-8 8-8 8 3.589 8 8-3.589 8-8 8zm56 60.687v-13.854c0-3.768 3.065-6.833 6.833-6.833 2.604 0 4.946 1.447 6.111 3.777l1.321 2.643z" fill="#7c657c"/><g><g><path d="m288 268h32v168h-32z" fill="#ffd3ae"/></g></g><g><g><path d="m288 268h32v24h-32z" fill="#ffb895"/></g></g><g><g><path d="m352 268h32v168h-32z" fill="#ffd3ae"/></g></g><g><g><path d="m352 268h32v24h-32z" fill="#ffb895"/></g></g><g><g><path d="m416 268h32v168h-32z" fill="#ffd3ae"/></g></g><g><g><path d="m416 268h32v24h-32z" fill="#ffb895"/></g></g><g><g><path d="m64 268h32v168h-32z" fill="#ffd3ae"/></g></g><g><g><path d="m448 220v-40h-112v-8h-160v8h-112v40h-16v48h416v-48z" fill="#ffd3ae"/></g></g><g><g><path d="m64 180h112v40h-112z" fill="#ffb895"/></g></g><g><g><path d="m336 180h112v40h-112z" fill="#ffb895"/></g></g><g><g><path d="m64 268h32v24h-32z" fill="#ffb895"/></g></g><g><g><path d="m128 268h32v168h-32z" fill="#ffd3ae"/></g></g><g><g><path d="m128 268h32v24h-32z" fill="#ffb895"/></g></g><g><g><path d="m192 268h32v168h-32z" fill="#ffd3ae"/></g></g><g><g><path d="m192 268h32v24h-32z" fill="#ffb895"/></g></g><g><g><path d="m32 452c0 13.255 10.745 24 24 24h400c13.255 0 24-10.745 24-24z" fill="#d1c9d1"/></g></g><g><g><path d="m496 460h-480c-8.837 0-16-7.163-16-16l8.003-8h495.999l7.998 8c0 8.837-7.163 16-16 16z" fill="#a494a4"/></g></g><path d="m496 428h-40.125v-152h8.125c4.418 0 8-3.582 8-8v-40h8c4.418 0 8-3.582 8-8s-3.582-8-8-8h-24v-24h8c4.418 0 8-3.582 8-8s-3.582-8-8-8h-120c0-4.418-3.582-8-8-8h-160c-4.418 0-8 3.582-8 8v.313l-119.979-.313c-.007 0-.014 0-.021 0-4.408 0-7.988 3.568-8 7.979-.011 4.418 3.561 8.009 7.979 8.021l8.021.021v23.979h-24c-4.418 0-8 3.582-8 8s3.582 8 8 8h8v40c0 4.418 3.582 8 8 8h8.125v152h-40.125c-8.836 0-16 7.164-16 16h512c0-8.836-7.163-16-16-16zm-56.125 0h-15.604v-152h15.604zm-319.739-152v152h-16.406v-152zm16 0h15.604v152h-15.604zm31.604 0h16.406v152h-16.406zm32.406 0h15.604v152h-15.604zm31.604 0h48.5v152h-48.5zm64.5 0h15.604v152h-15.604zm31.604 0h16.406v152h-16.406zm32.406 0h15.604v152h-15.604zm31.605 0h16.406v152h-16.406zm48.135-88v24h-96v-24zm-256-8h144v32h-144zm-112 8.063 96 .25v23.687h-96zm-16 39.937h400v32h-400zm16.125 48h15.604v152h-15.604z" fill="#503250"/></g></svg>