<svg id="Capa_1" enable-background="new 0 0 512 512" height="512" viewBox="0 0 512 512" width="512" xmlns="http://www.w3.org/2000/svg"><g><g><g><path d="m512 448h-512v-96c0-61.856 50.144-112 112-112h288c61.856 0 112 50.144 112 112z" fill="#c8f5f0"/></g></g><g><g><path d="m256 128c-22.091 0-40-17.909-40-40v-24c0-13.255 10.745-24 24-24h32c13.255 0 24 10.745 24 24v24c0 22.091-17.909 40-40 40z" fill="#a7c5c9"/></g></g><g><g><path d="m272 40h-32c-13.255 0-24 10.745-24 24v8h80v-8c0-13.255-10.745-24-24-24z" fill="#c8e6e1"/></g></g><g><g><path d="m312 152h-112c-26.51 0-48 21.49-48 48v104c0 13.255 10.745 24 24 24h160c13.255 0 24-10.745 24-24v-104c0-26.51-21.49-48-48-48z" fill="#a7c5c9"/></g></g><g><g><path d="m312 152h-112c-26.51 0-48 21.49-48 48v24c0-26.51 21.49-48 48-48h112c26.51 0 48 21.49 48 48v-24c0-26.51-21.49-48-48-48z" fill="#c8e6e1"/></g></g><g><g><path d="m400 392h-288c-17.673 0-32-14.327-32-32 0-17.673 14.327-32 32-32h288c17.673 0 32 14.327 32 32 0 17.673-14.327 32-32 32z" fill="#a7c5c9"/></g></g><g><g><path d="m81.131 352h349.737c-3.568-13.778-15.975-24-30.869-24h-287.999c-14.894 0-27.3 10.222-30.869 24z" fill="#c8e6e1"/></g></g><g><g><path d="m48 392h416v48h-416z" fill="#ffd3ae"/></g></g><g><g><path d="m48 392h416v24h-416z" fill="#ffb895"/></g></g><g><g><path d="m216 136c-4.418 0-8-3.582-8-8v-40c0-4.418 3.582-8 8-8s8 3.582 8 8v40c0 4.418-3.582 8-8 8z" fill="#7c657c"/></g></g><g><g><path d="m296 136c-4.418 0-8-3.582-8-8v-40c0-4.418 3.582-8 8-8s8 3.582 8 8v40c0 4.418-3.582 8-8 8z" fill="#7c657c"/></g></g><g><g><path d="m222.4 400c-26.019 0-46.4-31.626-46.4-72 0-4.418 3.582-8 8-8s8 3.582 8 8c0 15.666 3.589 30.276 10.107 41.139 3.33 5.55 10.395 14.861 20.293 14.861 4.418 0 8 3.582 8 8s-3.582 8-8 8z" fill="#7c657c"/></g></g><g><g><path d="m289.6 400c-4.418 0-8-3.582-8-8s3.582-8 8-8c9.898 0 16.963-9.311 20.293-14.861 6.518-10.863 10.107-25.473 10.107-41.139 0-4.418 3.582-8 8-8s8 3.582 8 8c0 40.374-20.381 72-46.4 72z" fill="#7c657c"/></g></g><g><g><path d="m312 400h-112c-39.701 0-72-32.299-72-72 0-4.418 3.582-8 8-8s8 3.582 8 8c0 30.878 25.122 56 56 56h112c30.878 0 56-25.122 56-56 0-4.418 3.582-8 8-8s8 3.582 8 8c0 39.701-32.299 72-72 72z" fill="#7c657c"/></g></g><g><g><path d="m256 304c-44.112 0-80-35.888-80-80v-66c0-4.418 3.582-8 8-8s8 3.582 8 8v66c0 35.29 28.71 64 64 64s64-28.71 64-64v-66c0-4.418 3.582-8 8-8s8 3.582 8 8v66c0 44.112-35.888 80-80 80z" fill="#7c657c"/></g></g><g><g><path d="m296 80h-80c-4.418 0-8-3.582-8-8s3.582-8 8-8h80c4.418 0 8 3.582 8 8s-3.582 8-8 8z" fill="#7c657c"/></g></g><g><g><path d="m32 456c0 13.255 10.745 24 24 24h400c13.255 0 24-10.745 24-24z" fill="#d1c9d1"/></g></g><g><g><path d="m496 464h-480c-8.837 0-16-7.163-16-16l8.003-8h495.999l7.998 8c0 8.837-7.163 16-16 16z" fill="#a494a4"/></g></g><g fill="#503250"><path d="m496 432h-24v-32c4.418 0 8-3.582 8-8s-3.582-8-8-8h-40.022c5.034-6.69 8.022-15.002 8.022-24 0-22.056-17.944-40-40-40h-36.305c2.732-4.711 4.305-10.173 4.305-16v-104c0-30.878-25.122-56-56-56h-112c-30.878 0-56 25.122-56 56v104c0 5.827 1.573 11.289 4.305 16h-36.305c-22.056 0-40 17.944-40 40 0 8.998 2.988 17.31 8.022 24h-40.022c-4.418 0-8 3.582-8 8s3.582 8 8 8v32h-24c-8.837 0-16 7.164-16 16h512c0-8.836-7.163-16-16-16zm-272-272h64v64c0 17.645-14.355 32-32 32s-32-14.355-32-32zm-64 144v-104c0-22.056 17.944-40 40-40h8v64c0 26.467 21.533 48 48 48s48-21.533 48-48v-64h8c22.056 0 40 17.944 40 40v104c0 8.822-7.178 16-16 16h-160c-8.822 0-16-7.178-16-16zm-72 56c0-13.233 10.767-24 24-24h288c13.233 0 24 10.767 24 24s-10.767 24-24 24h-288c-13.233 0-24-10.767-24-24zm-32 40h400v32h-400z"/><path d="m256 136c26.467 0 48-21.533 48-48v-24c0-17.645-14.355-32-32-32h-32c-17.645 0-32 14.355-32 32v24c0 26.467 21.533 48 48 48zm-32-72c0-8.822 7.178-16 16-16h32c8.822 0 16 7.178 16 16v24c0 17.645-14.355 32-32 32s-32-14.355-32-32z"/></g></g></svg>